<svg xmlns="http://www.w3.org/2000/svg" width="512" height="512" viewBox="0 0 512 512">
  <defs>
    <filter id="shadow" x="-30%" y="-30%" width="160%" height="160%">
      <feDropShadow dx="0" dy="18" stdDeviation="16" flood-color="#000" flood-opacity=".38"/>
    </filter>
    <linearGradient id="badge" x1="0" y1="0" x2="1" y2="1">
      <stop stop-color="#22D3EE"/>
      <stop offset=".5" stop-color="#6366F1"/>
      <stop offset="1" stop-color="#A855F7"/>
    </linearGradient>
  </defs>
  <g filter="url(#shadow)">
    <path d="M256 34l168 97 0 194-168 97-168-97V131z" fill="url(#badge)" stroke="#FFF" stroke-width="17" stroke-linejoin="round"/>
    <circle cx="256" cy="237" r="118" fill="#0B1023" fill-opacity=".82" stroke="#FFF" stroke-opacity=".3" stroke-width="8"/>
    <path d="M256 142v131" stroke="#FFF" stroke-width="42" stroke-linecap="round"/>
    <circle cx="256" cy="329" r="25" fill="#FFF"/>
    <path d="M112 91l13 28 31 4-23 22 6 31-27-15-28 15 6-31-23-22 32-4z" fill="#FDE047"/>
    <path d="M405 350l9 19 21 3-15 14 4 21-19-10-18 10 4-21-15-14 21-3z" fill="#FDE047"/>
  </g>
</svg>
