<svg xmlns="http://www.w3.org/2000/svg" width="512" height="512" viewBox="0 0 512 512">
  <defs>
    <filter id="s" x="-25%" y="-25%" width="150%" height="150%">
      <feDropShadow dx="0" dy="16" stdDeviation="14" flood-color="#000" flood-opacity=".34"/>
    </filter>
    <linearGradient id="g" x1="0" y1="0" x2="1" y2="1">
      <stop stop-color="#55C2FF"/>
      <stop offset="1" stop-color="#2764E7"/>
    </linearGradient>
  </defs>
  <g filter="url(#s)">
    <circle cx="256" cy="256" r="210" fill="url(#g)" stroke="#FFF" stroke-width="15"/>
    <path d="M140 354c35-80 55-143 73-230 5-25 39-31 54-11 8 10 11 23 8 36l-12 61 23-103c6-26 42-30 55-7 6 10 7 22 4 34l-30 130 34-71c11-23 44-22 54 1 5 11 4 23-1 34l-62 132c-20 42-62 69-109 69h-25c-50 0-86-26-66-75z" fill="#FFD18A" stroke="#B66B32" stroke-width="13" stroke-linejoin="round"/>
    <path d="M372 78l12 25 27 4-20 19 5 27-24-13-24 13 5-27-20-19 27-4z" fill="#FFF6AE"/>
    <path d="M105 103l8 17 19 3-14 13 4 19-17-9-17 9 4-19-14-13 19-3z" fill="#FFF6AE"/>
  </g>
</svg>
