<svg xmlns="http://www.w3.org/2000/svg" width="512" height="512" viewBox="0 0 512 512">
  <defs>
    <filter id="s" x="-25%" y="-25%" width="150%" height="150%">
      <feDropShadow dx="0" dy="16" stdDeviation="14" flood-color="#000" flood-opacity=".32"/>
    </filter>
  </defs>
  <g filter="url(#s)">
    <circle cx="256" cy="250" r="206" fill="#FFD93D" stroke="#F4A900" stroke-width="18"/>
    <path d="M126 157l103-35M283 122l103 35" stroke="#5B3515" stroke-width="22" stroke-linecap="round"/>
    <ellipse cx="174" cy="218" rx="32" ry="47" fill="#FFF"/>
    <ellipse cx="338" cy="218" rx="32" ry="47" fill="#FFF"/>
    <ellipse cx="174" cy="226" rx="15" ry="24" fill="#392314"/>
    <ellipse cx="338" cy="226" rx="15" ry="24" fill="#392314"/>
    <ellipse cx="256" cy="346" rx="73" ry="88" fill="#4B241A" stroke="#5B3515" stroke-width="14"/>
    <ellipse cx="256" cy="370" rx="43" ry="42" fill="#F45B69"/>
    <path d="M93 249c-23 30-28 71-7 91 18 17 48 6 52-20 5-27-13-51-45-71z" fill="#58B9FF" stroke="#1687D4" stroke-width="9"/>
  </g>
</svg>
